<?xml version="1.0" encoding="iso-8859-1"?>
<!-- Generator: Adobe Illustrator 19.0.0, SVG Export Plug-In . SVG Version: 6.00 Build 0)  -->
<svg version="1.1" id="Layer_1" xmlns="http://www.w3.org/2000/svg" xmlns:xlink="http://www.w3.org/1999/xlink" x="0px" y="0px"
	 viewBox="0 0 512 512" style="enable-background:new 0 0 512 512;" xml:space="preserve">
<g id="XMLID_373_">
	<g id="XMLID_7866_">
		<polygon id="XMLID_7521_" style="fill:#FFE269;" points="135.456,180.5 72.336,207.719 78.717,139.277 33.326,87.657 
			100.389,72.576 135.456,13.455 170.523,72.576 237.587,87.657 192.195,139.277 198.576,207.719 		"/>
		<polygon id="XMLID_7819_" style="fill:#FFF4CA;" points="135.456,146.211 103.294,160.08 106.545,125.206 83.416,98.903 
			117.588,91.218 135.456,61.093 153.324,91.218 187.497,98.903 164.368,125.206 167.619,160.08 		"/>
		<polygon id="XMLID_7786_" style="fill:#FFE269;" points="177.248,436.117 110.231,498.545 87.582,409.801 7.5,365.356 
			84.902,316.392 102.425,226.495 172.911,284.978 263.823,273.864 229.984,358.972 268.648,442 		"/>
		<polygon id="XMLID_6562_" style="fill:#FFF4CA;" points="163.403,397.329 126.015,432.157 113.38,382.648 68.703,357.853 
			111.884,330.536 121.66,280.384 160.983,313.01 211.702,306.81 192.824,354.291 214.394,400.611 		"/>
		<polygon id="XMLID_7785_" style="fill:#FFE269;" points="361.019,293.33 303.486,296.631 328.176,244.561 307.258,190.863 
			364.41,198.254 409.015,161.766 419.646,218.405 468.132,249.552 417.551,277.165 402.912,332.903 		"/>
		<polygon id="XMLID_7586_" style="fill:#FFF4CA;" points="371.911,263.474 345.572,264.986 356.875,241.148 347.299,216.566 
			373.463,219.949 393.883,203.245 398.75,229.174 420.946,243.433 397.79,256.074 391.089,281.59 		"/>
		<g id="XMLID_7778_">
			<circle id="XMLID_7780_" style="fill:#63CEC1;" cx="485.681" cy="342.317" r="18.819"/>
		</g>
		<g id="XMLID_7787_">
			<circle id="XMLID_7789_" style="fill:#A6AEF2;" cx="33.326" cy="182.008" r="18.819"/>
		</g>
		<g id="XMLID_7782_">
			<circle id="XMLID_7784_" style="fill:#A6AEF2;" cx="318.724" cy="361.136" r="18.819"/>
		</g>
		<g id="XMLID_7554_">
			<circle id="XMLID_7781_" style="fill:#FC819C;" cx="337.544" cy="446.172" r="18.819"/>
		</g>
		<g id="XMLID_7774_">
			<circle id="XMLID_7777_" style="fill:#FC819C;" cx="299.905" cy="134.857" r="18.819"/>
		</g>
		<g id="XMLID_7771_">
			<circle id="XMLID_7773_" style="fill:#FFB64D;" cx="256.943" cy="215.344" r="18.819"/>
		</g>
	</g>
	<g id="XMLID_90_">
		<g id="XMLID_7818_">
			<path id="XMLID_1716_" d="M72.337,215.219c-1.56,0-3.106-0.486-4.409-1.433c-2.143-1.557-3.306-4.127-3.06-6.764l6.081-65.222
				L27.694,92.61c-1.749-1.989-2.319-4.752-1.501-7.271s2.904-4.419,5.487-5l63.909-14.371l33.417-56.34
				c1.351-2.277,3.802-3.674,6.45-3.674s5.1,1.396,6.45,3.674l33.417,56.34l63.909,14.371c2.583,0.581,4.669,2.481,5.487,5
				s0.248,5.281-1.501,7.271l-43.256,49.19l6.081,65.222c0.246,2.637-0.917,5.207-3.06,6.764c-2.143,1.556-4.947,1.868-7.378,0.819
				l-15.981-6.892c-3.804-1.64-5.558-6.053-3.917-9.856c1.64-3.804,6.053-5.56,9.856-3.917l4.37,1.885l-5.207-55.853
				c-0.191-2.056,0.473-4.099,1.836-5.649L223.605,92.2l-54.728-12.307c-2.014-0.453-3.752-1.716-4.805-3.491l-28.616-48.245
				L106.84,76.402c-1.053,1.775-2.791,3.038-4.805,3.491L47.308,92.2l37.041,42.123c1.363,1.551,2.027,3.594,1.836,5.649
				l-5.207,55.853l51.509-22.212c1.895-0.818,4.045-0.818,5.939,0l20.407,8.8c3.804,1.64,5.558,6.053,3.917,9.856
				c-1.64,3.804-6.053,5.561-9.856,3.917l-17.438-7.519l-60.15,25.938C74.353,215.017,73.342,215.219,72.337,215.219z"/>
		</g>
		<g id="XMLID_98_">
			<path id="XMLID_1715_" d="M110.231,506.045c-0.705,0-1.416-0.1-2.111-0.304c-2.541-0.745-4.5-2.775-5.154-5.342l-21.851-85.61
				L3.861,371.914c-2.315-1.285-3.781-3.695-3.857-6.343c-0.076-2.646,1.25-5.138,3.487-6.553l27.519-17.408
				c3.5-2.214,8.134-1.172,10.348,2.328c2.215,3.501,1.172,8.134-2.328,10.348l-16.833,10.648l69.026,38.309
				c1.805,1.002,3.117,2.703,3.627,4.703l19.523,76.492l57.764-53.81c1.51-1.407,3.529-2.139,5.594-1.996l78.781,5.07
				l-33.326-71.565c-0.871-1.871-0.934-4.019-0.171-5.938l10.365-26.069c1.531-3.849,5.896-5.727,9.741-4.198
				c3.849,1.531,5.729,5.892,4.198,9.741l-9.171,23.063l37.299,80.097c1.118,2.4,0.887,5.213-0.607,7.398
				c-1.495,2.187-4.032,3.421-6.673,3.252l-88.172-5.675l-64.65,60.224C113.937,505.344,112.103,506.045,110.231,506.045z"/>
		</g>
		<g id="XMLID_97_">
			<path id="XMLID_1714_" d="M61.013,339.01c-2.486,0-4.918-1.234-6.345-3.491c-2.215-3.5-1.172-8.134,2.328-10.348l21.162-13.389
				l16.905-86.722c0.507-2.6,2.346-4.739,4.84-5.629c2.493-0.891,5.271-0.399,7.311,1.291l67.997,56.418l87.702-10.722
				c2.635-0.317,5.232,0.768,6.849,2.864c1.617,2.097,2.009,4.891,1.031,7.352l-12.133,30.514c-1.53,3.85-5.894,5.727-9.741,4.198
				c-3.849-1.531-5.729-5.892-4.198-9.741l7.461-18.763l-78.36,9.579c-2.048,0.251-4.11-0.354-5.699-1.673l-60.755-50.408
				l-15.104,77.485c-0.395,2.026-1.607,3.8-3.352,4.903l-23.896,15.117C63.772,338.634,62.384,339.01,61.013,339.01z"/>
		</g>
		<g id="XMLID_7816_">
			<path id="XMLID_1711_" d="M402.912,340.402c-1.891,0-3.74-0.715-5.151-2.048l-39.541-37.352l-54.305,3.115
				c-2.647,0.164-5.172-1.102-6.65-3.298c-1.479-2.196-1.69-5.01-0.556-7.402l23.305-49.148l-19.744-50.684
				c-0.961-2.468-0.55-5.259,1.082-7.345s4.239-3.149,6.868-2.816l53.944,6.977l42.102-34.44c2.05-1.676,4.831-2.147,7.319-1.24
				s4.313,3.06,4.801,5.662l10.034,53.46l45.766,29.398c2.228,1.432,3.536,3.932,3.441,6.578c-0.094,2.646-1.577,5.047-3.901,6.315
				l-47.742,26.063l-13.818,52.609c-0.673,2.562-2.646,4.578-5.192,5.306C404.294,340.308,403.6,340.402,402.912,340.402z
				 M361.019,285.83c1.91,0,3.754,0.729,5.15,2.048l32.7,30.89l11.428-43.508c0.524-1.996,1.849-3.688,3.66-4.678l39.482-21.555
				l-37.848-24.312c-1.736-1.116-2.937-2.898-3.317-4.927l-8.299-44.211l-34.817,28.481c-1.598,1.306-3.658,1.895-5.711,1.633
				l-44.611-5.77l16.328,41.915c0.749,1.924,0.673,4.071-0.212,5.936l-19.272,40.646l44.909-2.576
				C360.733,285.834,360.876,285.83,361.019,285.83z"/>
		</g>
		<g id="XMLID_96_">
			<g id="XMLID_7779_">
				<path id="XMLID_1708_" d="M485.681,368.636c-14.513,0-26.319-11.807-26.319-26.319s11.807-26.319,26.319-26.319
					S512,327.804,512,342.316S500.194,368.636,485.681,368.636z M485.681,330.997c-6.241,0-11.319,5.078-11.319,11.319
					s5.078,11.319,11.319,11.319S497,348.558,497,342.316S491.922,330.997,485.681,330.997z"/>
			</g>
		</g>
		<g id="XMLID_95_">
			<g id="XMLID_7788_">
				<path id="XMLID_1705_" d="M33.325,208.327c-14.513,0-26.319-11.807-26.319-26.319s11.807-26.319,26.319-26.319
					s26.319,11.807,26.319,26.319S47.838,208.327,33.325,208.327z M33.325,170.689c-6.241,0-11.319,5.078-11.319,11.319
					s5.078,11.319,11.319,11.319s11.319-5.078,11.319-11.319S39.567,170.689,33.325,170.689z"/>
			</g>
		</g>
		<g id="XMLID_94_">
			<g id="XMLID_7783_">
				<path id="XMLID_1702_" d="M318.725,387.455c-14.513,0-26.319-11.807-26.319-26.319s11.807-26.319,26.319-26.319
					s26.319,11.807,26.319,26.319S333.237,387.455,318.725,387.455z M318.725,349.816c-6.241,0-11.319,5.078-11.319,11.319
					s5.078,11.319,11.319,11.319s11.319-5.078,11.319-11.319S324.966,349.816,318.725,349.816z"/>
			</g>
		</g>
		<g id="XMLID_93_">
			<g id="XMLID_7556_">
				<path id="XMLID_1699_" d="M337.544,472.491c-14.513,0-26.319-11.807-26.319-26.319s11.807-26.319,26.319-26.319
					s26.319,11.807,26.319,26.319S352.057,472.491,337.544,472.491z M337.544,434.853c-6.241,0-11.319,5.078-11.319,11.319
					s5.078,11.319,11.319,11.319s11.319-5.078,11.319-11.319S343.785,434.853,337.544,434.853z"/>
			</g>
		</g>
		<g id="XMLID_92_">
			<g id="XMLID_7775_">
				<path id="XMLID_1696_" d="M299.905,161.176c-14.513,0-26.319-11.807-26.319-26.318c0-14.513,11.807-26.319,26.319-26.319
					s26.319,11.807,26.319,26.319C326.225,149.369,314.418,161.176,299.905,161.176z M299.905,123.538
					c-6.241,0-11.319,5.078-11.319,11.319s5.078,11.318,11.319,11.318s11.319-5.077,11.319-11.318S306.147,123.538,299.905,123.538z
					"/>
			</g>
		</g>
		<g id="XMLID_91_">
			<g id="XMLID_7772_">
				<path id="XMLID_1693_" d="M256.943,241.663c-14.513,0-26.319-11.807-26.319-26.319s11.807-26.319,26.319-26.319
					s26.319,11.807,26.319,26.319S271.455,241.663,256.943,241.663z M256.943,204.025c-6.241,0-11.319,5.078-11.319,11.319
					s5.078,11.319,11.319,11.319s11.319-5.078,11.319-11.319S263.184,204.025,256.943,204.025z"/>
			</g>
		</g>
	</g>
</g>
<g>
</g>
<g>
</g>
<g>
</g>
<g>
</g>
<g>
</g>
<g>
</g>
<g>
</g>
<g>
</g>
<g>
</g>
<g>
</g>
<g>
</g>
<g>
</g>
<g>
</g>
<g>
</g>
<g>
</g>
</svg>
